<svg xmlns="http://www.w3.org/2000/svg" xmlns:xlink="http://www.w3.org/1999/xlink" width="500" zoomAndPan="magnify" viewBox="0 0 375 374.999991" height="500" preserveAspectRatio="xMidYMid meet" version="1.0"><defs><g/><clipPath id="1544ba347d"><rect x="0" width="188" y="0" height="176"/></clipPath></defs><path fill="#fff3c2" d="M 207.136719 284.582031 C 206.367188 285.347656 205.53125 286.035156 204.632812 286.644531 C 203.734375 287.257812 202.789062 287.78125 201.792969 288.214844 C 200.796875 288.652344 199.769531 288.992188 198.710938 289.238281 C 197.652344 289.484375 196.582031 289.628906 195.496094 289.675781 C 194.410156 289.722656 193.332031 289.667969 192.253906 289.515625 C 191.179688 289.359375 190.125 289.109375 189.097656 288.761719 C 188.070312 288.414062 187.082031 287.972656 186.132812 287.441406 C 185.183594 286.910156 184.292969 286.296875 183.460938 285.597656 C 161.375 267.152344 118.53125 229.878906 112.652344 213.683594 C 105.128906 192.964844 108.335938 169.355469 125.347656 153.902344 C 145.730469 135.386719 174.074219 135.679688 194.382812 150.277344 L 194.355469 150.320312 C 214.671875 135.671875 243.046875 135.371094 263.449219 153.898438 C 268.007812 158.039062 271.382812 162.867188 274.207031 167.859375 C 285.550781 187.925781 278.707031 212 266.5 225.632812 Z M 207.136719 284.582031 " fill-opacity="1" fill-rule="nonzero"/><path fill="#fefefe" d="M 194.746094 290.3125 C 192.613281 290.3125 190.542969 289.945312 188.539062 289.214844 C 186.53125 288.484375 184.714844 287.433594 183.078125 286.058594 C 127.148438 239.339844 114.582031 220.789062 112.09375 213.886719 C 108.21875 203.238281 107.230469 192.109375 109.214844 181.707031 C 109.714844 179.003906 110.429688 176.363281 111.363281 173.777344 C 112.296875 171.191406 113.429688 168.699219 114.765625 166.300781 C 116.105469 163.902344 117.625 161.625 119.332031 159.472656 C 121.039062 157.320312 122.910156 155.320312 124.945312 153.472656 C 134.816406 144.496094 146.894531 139.523438 159.875 139.078125 C 162.9375 138.992188 165.992188 139.148438 169.03125 139.554688 C 172.070312 139.960938 175.054688 140.609375 177.992188 141.5 C 180.925781 142.390625 183.769531 143.511719 186.523438 144.863281 C 189.273438 146.210938 191.902344 147.777344 194.402344 149.550781 C 196.898438 147.777344 199.519531 146.214844 202.269531 144.863281 C 205.019531 143.511719 207.859375 142.394531 210.792969 141.503906 C 213.722656 140.613281 216.707031 139.964844 219.742188 139.554688 C 222.78125 139.148438 225.828125 138.988281 228.890625 139.074219 C 241.882812 139.511719 253.972656 144.488281 263.851562 153.460938 C 267.917969 157.15625 271.371094 161.636719 274.726562 167.570312 C 280.042969 176.972656 281.789062 187.933594 279.773438 199.269531 C 278.019531 209.136719 273.34375 218.890625 266.945312 226.035156 L 266.921875 226.058594 L 207.558594 285 C 205.859375 286.703125 203.898438 288.011719 201.679688 288.933594 C 199.460938 289.851562 197.148438 290.3125 194.746094 290.3125 Z M 161.714844 140.234375 C 161.113281 140.234375 160.519531 140.234375 159.914062 140.265625 C 147.21875 140.703125 135.40625 145.570312 125.746094 154.34375 C 109.976562 168.660156 105.171875 191.324219 113.214844 213.480469 C 119.179688 229.882812 164.589844 269.058594 183.84375 285.140625 C 184.648438 285.816406 185.507812 286.414062 186.421875 286.929688 C 187.335938 287.449219 188.292969 287.875 189.285156 288.214844 C 190.28125 288.554688 191.296875 288.796875 192.339844 288.949219 C 193.378906 289.097656 194.421875 289.148438 195.472656 289.105469 C 196.523438 289.058594 197.558594 288.917969 198.582031 288.679688 C 199.605469 288.441406 200.597656 288.109375 201.5625 287.6875 C 202.523438 287.261719 203.4375 286.753906 204.304688 286.160156 C 205.171875 285.566406 205.976562 284.898438 206.71875 284.15625 L 266.082031 225.222656 C 272.335938 218.246094 276.898438 208.710938 278.617188 199.058594 C 280.582031 188 278.882812 177.316406 273.707031 168.160156 C 270.414062 162.335938 267.035156 157.949219 263.066406 154.34375 C 253.398438 145.558594 241.574219 140.691406 228.867188 140.261719 C 225.832031 140.175781 222.804688 140.339844 219.792969 140.75 C 216.785156 141.160156 213.828125 141.8125 210.921875 142.710938 C 208.019531 143.605469 205.207031 144.734375 202.488281 146.089844 C 199.769531 147.449219 197.179688 149.019531 194.71875 150.800781 C 194.601562 150.886719 194.46875 150.925781 194.324219 150.914062 C 194.179688 150.902344 194.054688 150.84375 193.949219 150.742188 C 193.914062 150.707031 193.882812 150.667969 193.859375 150.621094 C 191.527344 148.957031 189.082031 147.476562 186.523438 146.1875 C 183.964844 144.898438 181.320312 143.816406 178.59375 142.933594 C 175.867188 142.054688 173.085938 141.386719 170.257812 140.933594 C 167.429688 140.480469 164.578125 140.25 161.714844 140.234375 Z M 266.5 225.636719 Z M 266.5 225.636719 " fill-opacity="1" fill-rule="nonzero"/><path fill="#ffc2e8" d="M 255.390625 162.433594 C 254.375 161.417969 253.316406 160.457031 252.207031 159.546875 C 251.097656 158.636719 249.945312 157.785156 248.753906 156.988281 C 247.5625 156.191406 246.332031 155.453125 245.066406 154.777344 C 243.804688 154.101562 242.507812 153.488281 241.183594 152.941406 C 239.859375 152.390625 238.507812 151.910156 237.136719 151.492188 C 235.765625 151.078125 234.375 150.730469 232.96875 150.449219 C 231.5625 150.171875 230.144531 149.960938 228.714844 149.820312 C 227.289062 149.679688 225.859375 149.609375 224.425781 149.609375 C 222.992188 149.609375 221.558594 149.679688 220.132812 149.820312 C 218.703125 149.960938 217.289062 150.171875 215.882812 150.449219 C 214.472656 150.730469 213.085938 151.078125 211.710938 151.492188 C 210.339844 151.910156 208.992188 152.390625 207.667969 152.941406 C 206.339844 153.488281 205.046875 154.101562 203.78125 154.777344 C 202.515625 155.453125 201.289062 156.191406 200.09375 156.988281 C 198.902344 157.785156 197.75 158.636719 196.644531 159.546875 C 195.535156 160.457031 194.472656 161.417969 193.457031 162.433594 L 193.433594 162.457031 L 193.378906 162.398438 C 192.363281 161.394531 191.300781 160.441406 190.191406 159.542969 C 189.082031 158.640625 187.929688 157.796875 186.738281 157.007812 C 185.546875 156.21875 184.316406 155.492188 183.054688 154.824219 C 181.789062 154.15625 180.496094 153.550781 179.175781 153.007812 C 177.851562 152.46875 176.507812 151.992188 175.136719 151.582031 C 173.765625 151.171875 172.382812 150.832031 170.980469 150.554688 C 169.574219 150.28125 168.164062 150.078125 166.742188 149.941406 C 165.316406 149.804688 163.890625 149.742188 162.460938 149.746094 C 161.03125 149.75 159.609375 149.820312 158.183594 149.964844 C 156.761719 150.109375 155.351562 150.320312 153.949219 150.601562 C 152.550781 150.886719 151.164062 151.234375 149.796875 151.652344 C 148.429688 152.070312 147.089844 152.550781 145.769531 153.101562 C 144.449219 153.648438 143.160156 154.261719 141.898438 154.9375 C 140.640625 155.613281 139.414062 156.347656 138.226562 157.140625 C 137.039062 157.9375 135.894531 158.789062 134.789062 159.695312 C 133.683594 160.601562 132.628906 161.5625 131.617188 162.570312 C 130.605469 163.582031 129.648438 164.640625 128.742188 165.746094 C 127.832031 166.847656 126.980469 167.996094 126.1875 169.183594 C 125.394531 170.371094 124.65625 171.59375 123.984375 172.855469 C 123.308594 174.113281 122.695312 175.402344 122.148438 176.722656 C 121.597656 178.042969 121.117188 179.386719 120.699219 180.753906 C 120.28125 182.121094 119.933594 183.503906 119.648438 184.90625 C 119.367188 186.308594 119.15625 187.71875 119.011719 189.140625 C 118.867188 190.5625 118.796875 191.988281 118.792969 193.417969 C 118.789062 194.847656 118.855469 196.273438 118.988281 197.695312 C 119.125 199.117188 119.328125 200.53125 119.605469 201.933594 C 119.878906 203.335938 120.21875 204.722656 120.628906 206.09375 C 121.039062 207.460938 121.515625 208.808594 122.058594 210.128906 C 122.597656 211.453125 123.203125 212.746094 123.871094 214.007812 C 124.539062 215.273438 125.269531 216.5 126.054688 217.691406 C 126.84375 218.882812 127.6875 220.035156 128.589844 221.144531 C 129.492188 222.253906 130.445312 223.316406 131.449219 224.332031 L 132.59375 225.476562 L 134.132812 226.46875 C 134.0625 227.234375 134.097656 227.996094 134.238281 228.753906 C 134.375 229.507812 134.613281 230.234375 134.949219 230.925781 C 135.289062 231.617188 135.710938 232.25 136.222656 232.824219 C 136.734375 233.398438 137.3125 233.894531 137.960938 234.308594 C 138.609375 234.726562 139.296875 235.046875 140.035156 235.273438 C 140.769531 235.5 141.519531 235.625 142.289062 235.644531 C 143.058594 235.664062 143.816406 235.578125 144.5625 235.390625 C 145.308594 235.203125 146.015625 234.917969 146.683594 234.535156 L 147.1875 234.875 C 146.929688 235.3125 146.710938 235.769531 146.53125 236.246094 C 146.355469 236.722656 146.222656 237.210938 146.132812 237.710938 C 146.046875 238.214844 146.003906 238.71875 146.007812 239.226562 C 146.007812 239.734375 146.058594 240.238281 146.152344 240.738281 C 146.246094 241.238281 146.386719 241.726562 146.570312 242.199219 C 146.753906 242.675781 146.976562 243.128906 147.242188 243.5625 C 147.507812 243.996094 147.8125 244.402344 148.148438 244.78125 C 148.488281 245.160156 148.859375 245.507812 149.261719 245.820312 C 149.664062 246.132812 150.089844 246.402344 150.542969 246.636719 C 150.992188 246.871094 151.460938 247.066406 151.949219 247.214844 C 152.433594 247.363281 152.929688 247.46875 153.4375 247.527344 C 153.941406 247.585938 154.445312 247.597656 154.953125 247.566406 C 155.460938 247.535156 155.964844 247.457031 156.457031 247.332031 C 156.949219 247.210938 157.429688 247.042969 157.890625 246.832031 C 158.355469 246.621094 158.796875 246.371094 159.214844 246.082031 C 159.632812 245.792969 160.019531 245.464844 160.378906 245.105469 L 161.449219 244.035156 L 160.378906 245.101562 C 159.988281 245.492188 159.636719 245.917969 159.332031 246.378906 C 159.023438 246.835938 158.765625 247.320312 158.550781 247.832031 C 158.339844 248.34375 158.179688 248.871094 158.074219 249.410156 C 157.964844 249.953125 157.910156 250.5 157.910156 251.054688 C 157.910156 251.605469 157.964844 252.152344 158.070312 252.695312 C 158.179688 253.238281 158.339844 253.765625 158.550781 254.277344 C 158.761719 254.785156 159.019531 255.273438 159.328125 255.730469 C 159.632812 256.191406 159.984375 256.617188 160.375 257.007812 C 160.765625 257.398438 161.191406 257.746094 161.648438 258.054688 C 162.109375 258.363281 162.59375 258.621094 163.105469 258.832031 C 163.617188 259.046875 164.140625 259.203125 164.683594 259.3125 C 165.226562 259.421875 165.773438 259.476562 166.324219 259.476562 C 166.878906 259.476562 167.425781 259.421875 167.96875 259.3125 C 168.511719 259.207031 169.035156 259.046875 169.546875 258.835938 C 170.058594 258.625 170.542969 258.363281 171.003906 258.058594 C 171.464844 257.75 171.886719 257.402344 172.28125 257.011719 C 171.855469 257.394531 171.472656 257.816406 171.132812 258.273438 C 170.792969 258.734375 170.5 259.222656 170.261719 259.742188 C 170.019531 260.261719 169.835938 260.800781 169.707031 261.355469 C 169.574219 261.914062 169.503906 262.476562 169.488281 263.050781 C 169.472656 263.621094 169.515625 264.1875 169.613281 264.753906 C 169.714844 265.316406 169.871094 265.863281 170.082031 266.394531 C 170.292969 266.925781 170.558594 267.429688 170.871094 267.90625 C 171.1875 268.386719 171.546875 268.824219 171.949219 269.230469 C 172.355469 269.632812 172.796875 269.992188 173.273438 270.308594 C 173.75 270.621094 174.257812 270.886719 174.789062 271.097656 C 175.320312 271.308594 175.867188 271.464844 176.429688 271.566406 C 176.992188 271.664062 177.558594 271.707031 178.132812 271.691406 C 178.703125 271.675781 179.265625 271.601562 179.824219 271.472656 C 180.382812 271.339844 180.917969 271.15625 181.4375 270.917969 C 181.957031 270.675781 182.445312 270.386719 182.90625 270.046875 C 183.367188 269.707031 183.789062 269.324219 184.167969 268.898438 L 189.410156 263.65625 C 189.738281 263.320312 190.039062 262.960938 190.308594 262.578125 L 191.273438 263.199219 L 198.484375 270.382812 C 198.875 270.773438 199.300781 271.125 199.757812 271.429688 C 200.21875 271.738281 200.703125 271.996094 201.214844 272.207031 C 201.726562 272.421875 202.25 272.578125 202.792969 272.6875 C 203.335938 272.796875 203.882812 272.847656 204.433594 272.847656 C 204.988281 272.847656 205.535156 272.796875 206.078125 272.6875 C 206.617188 272.578125 207.144531 272.421875 207.65625 272.207031 C 208.164062 271.996094 208.652344 271.738281 209.109375 271.429688 C 209.570312 271.125 209.996094 270.773438 210.386719 270.382812 C 210.777344 269.992188 211.125 269.570312 211.433594 269.109375 C 211.738281 268.648438 212 268.164062 212.210938 267.652344 C 212.421875 267.144531 212.582031 266.617188 212.6875 266.074219 C 212.796875 265.535156 212.851562 264.984375 212.851562 264.433594 C 212.851562 263.882812 212.796875 263.332031 212.6875 262.792969 C 212.582031 262.25 212.421875 261.722656 212.210938 261.214844 C 212 260.703125 211.738281 260.21875 211.433594 259.757812 C 211.125 259.296875 210.777344 258.875 210.386719 258.484375 L 197.734375 245.824219 L 197.839844 245.71875 L 210.492188 258.375 C 210.882812 258.765625 211.308594 259.117188 211.769531 259.421875 C 212.226562 259.730469 212.714844 259.988281 213.222656 260.199219 C 213.734375 260.410156 214.261719 260.570312 214.804688 260.679688 C 215.34375 260.789062 215.894531 260.839844 216.445312 260.839844 C 217 260.839844 217.546875 260.789062 218.089844 260.679688 C 218.628906 260.570312 219.15625 260.410156 219.667969 260.199219 C 220.179688 259.988281 220.664062 259.730469 221.121094 259.421875 C 221.582031 259.117188 222.007812 258.765625 222.398438 258.375 C 222.789062 257.984375 223.136719 257.558594 223.445312 257.101562 C 223.753906 256.640625 224.011719 256.15625 224.222656 255.644531 C 224.433594 255.132812 224.59375 254.605469 224.703125 254.066406 C 224.808594 253.523438 224.863281 252.976562 224.863281 252.421875 C 224.863281 251.871094 224.808594 251.324219 224.703125 250.78125 C 224.59375 250.238281 224.433594 249.710938 224.222656 249.199219 C 224.011719 248.691406 223.753906 248.207031 223.445312 247.746094 C 223.136719 247.285156 222.789062 246.859375 222.398438 246.46875 L 209.742188 233.8125 L 222.398438 246.46875 C 222.796875 246.828125 223.222656 247.144531 223.679688 247.421875 C 224.140625 247.699219 224.617188 247.929688 225.121094 248.113281 C 225.621094 248.296875 226.136719 248.433594 226.664062 248.519531 C 227.191406 248.609375 227.722656 248.644531 228.257812 248.628906 C 228.792969 248.617188 229.320312 248.550781 229.84375 248.4375 C 230.363281 248.320312 230.871094 248.15625 231.363281 247.945312 C 231.851562 247.734375 232.320312 247.476562 232.761719 247.175781 C 233.203125 246.878906 233.613281 246.539062 233.992188 246.160156 C 234.371094 245.78125 234.707031 245.371094 235.007812 244.925781 C 235.308594 244.484375 235.5625 244.015625 235.773438 243.523438 C 235.980469 243.03125 236.144531 242.527344 236.257812 242.003906 C 236.371094 241.480469 236.433594 240.953125 236.449219 240.417969 C 236.460938 239.882812 236.421875 239.351562 236.335938 238.824219 C 236.246094 238.296875 236.109375 237.785156 235.921875 237.28125 C 235.734375 236.78125 235.503906 236.300781 235.226562 235.84375 C 234.949219 235.386719 234.632812 234.960938 234.273438 234.566406 C 234.914062 235.207031 235.644531 235.730469 236.457031 236.140625 C 237.269531 236.546875 238.125 236.816406 239.023438 236.945312 C 239.925781 237.074219 240.820312 237.058594 241.714844 236.894531 C 242.609375 236.734375 243.457031 236.4375 244.253906 236 C 245.050781 235.566406 245.761719 235.015625 246.378906 234.347656 C 247 233.683594 247.5 232.9375 247.875 232.109375 C 248.253906 231.285156 248.492188 230.417969 248.589844 229.515625 C 248.683594 228.609375 248.636719 227.714844 248.445312 226.828125 L 249.480469 230.261719 L 255.378906 224.363281 C 256.394531 223.351562 257.355469 222.289062 258.265625 221.179688 C 259.175781 220.074219 260.03125 218.921875 260.828125 217.730469 C 261.625 216.539062 262.359375 215.308594 263.035156 214.042969 C 263.714844 212.78125 264.324219 211.484375 264.875 210.160156 C 265.425781 208.835938 265.90625 207.484375 266.324219 206.113281 C 266.742188 204.742188 267.089844 203.351562 267.367188 201.945312 C 267.648438 200.539062 267.859375 199.121094 268 197.695312 C 268.140625 196.265625 268.210938 194.835938 268.210938 193.402344 C 268.210938 191.964844 268.140625 190.535156 268 189.109375 C 267.863281 187.679688 267.652344 186.265625 267.371094 184.855469 C 267.09375 183.449219 266.746094 182.0625 266.328125 180.6875 C 265.914062 179.316406 265.429688 177.964844 264.882812 176.640625 C 264.332031 175.316406 263.71875 174.019531 263.042969 172.757812 C 262.367188 171.492188 261.632812 170.261719 260.835938 169.070312 C 260.039062 167.875 259.1875 166.726562 258.277344 165.617188 C 257.367188 164.507812 256.40625 163.445312 255.390625 162.433594 Z M 248.050781 225.476562 Z M 248.050781 225.476562 " fill-opacity="1" fill-rule="nonzero"/><path fill="#fefefe" d="M 204.417969 273.472656 C 203.21875 273.476562 202.0625 273.246094 200.957031 272.789062 C 199.847656 272.332031 198.871094 271.679688 198.023438 270.828125 L 190.867188 263.691406 L 132.253906 226.007812 C 132.214844 225.984375 132.179688 225.953125 132.148438 225.921875 L 131.003906 224.777344 C 129.976562 223.75 129 222.671875 128.078125 221.546875 C 127.152344 220.421875 126.289062 219.257812 125.480469 218.046875 C 124.671875 216.835938 123.921875 215.589844 123.238281 214.308594 C 122.550781 213.023438 121.929688 211.710938 121.375 210.367188 C 120.816406 209.023438 120.328125 207.652344 119.90625 206.261719 C 119.484375 204.867188 119.128906 203.457031 118.847656 202.03125 C 118.5625 200.605469 118.347656 199.167969 118.207031 197.71875 C 118.0625 196.269531 117.992188 194.820312 117.992188 193.363281 C 117.992188 191.910156 118.0625 190.457031 118.207031 189.011719 C 118.347656 187.5625 118.5625 186.125 118.847656 184.699219 C 119.128906 183.269531 119.484375 181.859375 119.90625 180.46875 C 120.328125 179.078125 120.816406 177.707031 121.375 176.363281 C 121.929688 175.019531 122.550781 173.707031 123.238281 172.421875 C 123.921875 171.140625 124.671875 169.894531 125.480469 168.683594 C 126.289062 167.472656 127.152344 166.304688 128.078125 165.179688 C 129 164.054688 129.976562 162.980469 131.003906 161.949219 C 132.03125 160.921875 133.109375 159.945312 134.234375 159.023438 C 135.359375 158.101562 136.527344 157.234375 137.738281 156.425781 C 138.945312 155.617188 140.191406 154.871094 141.476562 154.183594 C 142.757812 153.5 144.074219 152.878906 145.417969 152.320312 C 146.761719 151.765625 148.128906 151.273438 149.523438 150.851562 C 150.914062 150.429688 152.324219 150.078125 153.75 149.792969 C 155.179688 149.507812 156.617188 149.296875 158.0625 149.152344 C 159.511719 149.011719 160.964844 148.9375 162.417969 148.9375 C 163.871094 148.9375 165.324219 149.011719 166.773438 149.152344 C 168.21875 149.296875 169.65625 149.507812 171.085938 149.792969 C 172.511719 150.078125 173.921875 150.429688 175.3125 150.851562 C 176.707031 151.273438 178.074219 151.765625 179.417969 152.320312 C 180.761719 152.878906 182.078125 153.5 183.359375 154.183594 C 184.644531 154.871094 185.890625 155.617188 187.101562 156.425781 C 188.308594 157.234375 189.476562 158.101562 190.601562 159.023438 C 191.726562 159.945312 192.804688 160.921875 193.832031 161.949219 L 193.941406 162.0625 C 193.96875 162.085938 193.992188 162.113281 194.011719 162.140625 L 212.40625 187.988281 L 246.644531 222.222656 C 247.015625 222.589844 247.351562 222.988281 247.652344 223.417969 C 247.957031 223.84375 248.21875 224.296875 248.445312 224.769531 C 248.667969 225.242188 248.851562 225.730469 248.988281 226.238281 C 249.128906 226.742188 249.222656 227.253906 249.273438 227.777344 C 249.324219 228.296875 249.328125 228.820312 249.289062 229.34375 C 249.246094 229.867188 249.160156 230.378906 249.03125 230.886719 C 248.902344 231.394531 248.730469 231.886719 248.511719 232.367188 C 248.296875 232.84375 248.042969 233.296875 247.75 233.730469 C 247.453125 234.164062 247.125 234.570312 246.757812 234.945312 C 246.394531 235.320312 246 235.664062 245.574219 235.96875 C 245.152344 236.277344 244.703125 236.546875 244.234375 236.777344 C 243.761719 237.007812 243.273438 237.195312 242.769531 237.339844 C 242.269531 237.484375 241.753906 237.585938 241.234375 237.640625 C 240.714844 237.695312 240.191406 237.707031 239.667969 237.671875 C 239.148438 237.640625 238.628906 237.558594 238.121094 237.433594 C 237.613281 237.3125 237.117188 237.144531 236.636719 236.933594 C 236.996094 237.765625 237.226562 238.632812 237.324219 239.535156 C 237.421875 240.4375 237.382812 241.332031 237.214844 242.222656 C 237.042969 243.113281 236.742188 243.957031 236.320312 244.757812 C 235.894531 245.558594 235.359375 246.277344 234.71875 246.917969 C 234.074219 247.558594 233.355469 248.089844 232.554688 248.511719 C 231.75 248.9375 230.90625 249.234375 230.015625 249.402344 C 229.125 249.570312 228.226562 249.605469 227.328125 249.503906 C 226.425781 249.402344 225.558594 249.171875 224.730469 248.8125 C 225.09375 249.652344 225.324219 250.53125 225.425781 251.441406 C 225.523438 252.351562 225.484375 253.257812 225.308594 254.160156 C 225.128906 255.058594 224.824219 255.910156 224.386719 256.71875 C 223.953125 257.527344 223.40625 258.25 222.75 258.890625 C 222.09375 259.53125 221.359375 260.058594 220.539062 260.476562 C 219.722656 260.894531 218.863281 261.179688 217.960938 261.335938 C 217.054688 261.488281 216.148438 261.507812 215.242188 261.386719 C 214.332031 261.265625 213.460938 261.015625 212.628906 260.628906 C 212.789062 260.972656 212.925781 261.324219 213.039062 261.683594 C 213.15625 262.046875 213.246094 262.410156 213.316406 262.785156 C 213.386719 263.15625 213.429688 263.53125 213.453125 263.90625 C 213.476562 264.285156 213.472656 264.664062 213.449219 265.039062 C 213.421875 265.417969 213.375 265.792969 213.300781 266.164062 C 213.230469 266.535156 213.132812 266.902344 213.015625 267.261719 C 212.898438 267.621094 212.757812 267.96875 212.59375 268.3125 C 212.433594 268.652344 212.25 268.984375 212.046875 269.300781 C 211.84375 269.621094 211.621094 269.925781 211.378906 270.214844 C 211.136719 270.507812 210.875 270.78125 210.601562 271.039062 C 210.324219 271.296875 210.03125 271.539062 209.726562 271.761719 C 209.417969 271.980469 209.101562 272.183594 208.769531 272.363281 C 208.4375 272.546875 208.09375 272.707031 207.742188 272.84375 C 207.390625 272.984375 207.03125 273.101562 206.664062 273.195312 C 206.296875 273.285156 205.925781 273.355469 205.550781 273.402344 C 205.175781 273.449219 204.800781 273.472656 204.421875 273.472656 Z M 132.988281 224.984375 L 191.621094 262.671875 C 191.65625 262.695312 191.691406 262.726562 191.722656 262.757812 L 198.910156 269.941406 C 199.269531 270.304688 199.664062 270.628906 200.089844 270.910156 C 200.515625 271.195312 200.964844 271.4375 201.4375 271.632812 C 201.910156 271.828125 202.398438 271.976562 202.898438 272.074219 C 203.402344 272.175781 203.90625 272.226562 204.417969 272.226562 C 204.929688 272.226562 205.4375 272.175781 205.9375 272.074219 C 206.441406 271.976562 206.929688 271.828125 207.402344 271.632812 C 207.875 271.4375 208.324219 271.195312 208.746094 270.910156 C 209.171875 270.628906 209.566406 270.304688 209.929688 269.941406 C 210.289062 269.582031 210.613281 269.1875 210.898438 268.761719 C 211.179688 268.335938 211.421875 267.886719 211.617188 267.414062 C 211.8125 266.941406 211.960938 266.457031 212.0625 265.953125 C 212.160156 265.453125 212.210938 264.945312 212.210938 264.433594 C 212.210938 263.921875 212.160156 263.414062 212.0625 262.914062 C 211.960938 262.410156 211.8125 261.925781 211.617188 261.453125 C 211.421875 260.980469 211.179688 260.53125 210.898438 260.105469 C 210.613281 259.679688 210.289062 259.285156 209.929688 258.925781 L 197.292969 246.269531 C 197.167969 246.148438 197.109375 246 197.109375 245.824219 C 197.109375 245.652344 197.167969 245.503906 197.292969 245.378906 L 197.398438 245.273438 C 197.523438 245.152344 197.667969 245.089844 197.84375 245.089844 C 198.015625 245.089844 198.164062 245.152344 198.285156 245.273438 L 210.921875 257.9375 C 211.28125 258.308594 211.675781 258.644531 212.101562 258.9375 C 212.523438 259.230469 212.976562 259.480469 213.449219 259.683594 C 213.925781 259.890625 214.417969 260.046875 214.921875 260.152344 C 215.429688 260.257812 215.941406 260.3125 216.457031 260.320312 C 216.976562 260.324219 217.488281 260.277344 217.996094 260.179688 C 218.503906 260.082031 219 259.933594 219.476562 259.738281 C 219.957031 259.542969 220.410156 259.300781 220.839844 259.015625 C 221.273438 258.730469 221.671875 258.402344 222.035156 258.039062 C 222.402344 257.671875 222.726562 257.273438 223.015625 256.84375 C 223.300781 256.410156 223.542969 255.957031 223.738281 255.476562 C 223.933594 255 224.082031 254.503906 224.179688 253.996094 C 224.277344 253.488281 224.324219 252.976562 224.316406 252.460938 C 224.3125 251.941406 224.257812 251.429688 224.152344 250.925781 C 224.042969 250.417969 223.890625 249.925781 223.683594 249.453125 C 223.480469 248.976562 223.230469 248.527344 222.9375 248.101562 C 222.644531 247.675781 222.308594 247.28125 221.9375 246.921875 L 209.285156 234.265625 C 209.148438 234.148438 209.078125 233.996094 209.070312 233.816406 C 209.066406 233.632812 209.128906 233.480469 209.253906 233.351562 C 209.382812 233.222656 209.539062 233.160156 209.71875 233.167969 C 209.902344 233.171875 210.050781 233.242188 210.171875 233.378906 L 222.824219 246.007812 C 223.1875 246.371094 223.578125 246.695312 224.003906 246.976562 C 224.429688 247.261719 224.878906 247.503906 225.351562 247.699219 C 225.824219 247.894531 226.308594 248.042969 226.8125 248.140625 C 227.3125 248.242188 227.820312 248.292969 228.332031 248.292969 C 228.84375 248.292969 229.351562 248.242188 229.851562 248.140625 C 230.351562 248.042969 230.839844 247.894531 231.3125 247.699219 C 231.785156 247.503906 232.234375 247.261719 232.660156 246.980469 C 233.085938 246.695312 233.480469 246.371094 233.839844 246.011719 C 234.203125 245.648438 234.523438 245.253906 234.808594 244.832031 C 235.09375 244.40625 235.332031 243.957031 235.53125 243.484375 C 235.726562 243.011719 235.875 242.523438 235.972656 242.023438 C 236.074219 241.519531 236.125 241.015625 236.125 240.503906 C 236.125 239.992188 236.074219 239.484375 235.972656 238.984375 C 235.875 238.480469 235.726562 237.996094 235.53125 237.523438 C 235.335938 237.050781 235.09375 236.601562 234.8125 236.175781 C 234.527344 235.75 234.203125 235.355469 233.84375 234.992188 L 221.1875 222.335938 C 221.050781 222.21875 220.980469 222.066406 220.972656 221.886719 C 220.96875 221.703125 221.027344 221.550781 221.15625 221.421875 C 221.285156 221.292969 221.441406 221.230469 221.621094 221.238281 C 221.800781 221.242188 221.953125 221.3125 222.074219 221.449219 L 234.730469 234.105469 C 235.089844 234.46875 235.484375 234.789062 235.910156 235.074219 C 236.335938 235.359375 236.785156 235.597656 237.257812 235.792969 C 237.730469 235.988281 238.214844 236.132812 238.71875 236.234375 C 239.21875 236.332031 239.726562 236.382812 240.238281 236.382812 C 240.746094 236.382812 241.253906 236.332031 241.753906 236.230469 C 242.257812 236.132812 242.742188 235.984375 243.214844 235.789062 C 243.6875 235.589844 244.136719 235.351562 244.5625 235.066406 C 244.984375 234.785156 245.378906 234.460938 245.738281 234.097656 C 246.101562 233.738281 246.425781 233.34375 246.707031 232.917969 C 246.992188 232.496094 247.230469 232.046875 247.425781 231.574219 C 247.625 231.101562 247.769531 230.613281 247.871094 230.113281 C 247.96875 229.613281 248.019531 229.105469 248.019531 228.59375 C 248.019531 228.082031 247.972656 227.578125 247.871094 227.074219 C 247.773438 226.574219 247.625 226.085938 247.429688 225.617188 C 247.234375 225.144531 246.996094 224.695312 246.710938 224.269531 C 246.425781 223.84375 246.105469 223.449219 245.742188 223.089844 L 211.476562 188.820312 C 211.449219 188.796875 211.429688 188.769531 211.40625 188.738281 L 192.992188 162.902344 L 192.9375 162.84375 C 191.9375 161.847656 190.890625 160.898438 189.796875 160 C 188.707031 159.105469 187.570312 158.261719 186.394531 157.476562 C 185.222656 156.691406 184.007812 155.964844 182.761719 155.300781 C 181.515625 154.632812 180.238281 154.03125 178.933594 153.488281 C 177.628906 152.945312 176.296875 152.472656 174.945312 152.0625 C 173.59375 151.652344 172.222656 151.308594 170.835938 151.03125 C 169.449219 150.757812 168.054688 150.546875 166.644531 150.410156 C 165.238281 150.269531 163.828125 150.203125 162.414062 150.203125 C 161 150.203125 159.589844 150.269531 158.183594 150.410156 C 156.777344 150.546875 155.382812 150.753906 153.996094 151.03125 C 152.609375 151.308594 151.238281 151.648438 149.886719 152.058594 C 148.53125 152.46875 147.203125 152.945312 145.898438 153.488281 C 144.589844 154.027344 143.3125 154.632812 142.066406 155.296875 C 140.820312 155.964844 139.609375 156.691406 138.433594 157.476562 C 137.257812 158.261719 136.125 159.101562 135.03125 160 C 133.9375 160.894531 132.894531 161.84375 131.894531 162.84375 C 130.894531 163.84375 129.945312 164.890625 129.046875 165.980469 C 128.152344 167.074219 127.308594 168.210938 126.523438 169.382812 C 125.738281 170.558594 125.011719 171.769531 124.347656 173.019531 C 123.679688 174.265625 123.078125 175.539062 122.535156 176.847656 C 121.996094 178.152344 121.519531 179.484375 121.109375 180.835938 C 120.699219 182.1875 120.355469 183.558594 120.078125 184.945312 C 119.804688 186.332031 119.597656 187.726562 119.457031 189.132812 C 119.320312 190.542969 119.25 191.953125 119.25 193.367188 C 119.25 194.777344 119.320312 196.1875 119.457031 197.597656 C 119.59375 199.003906 119.800781 200.398438 120.078125 201.785156 C 120.355469 203.171875 120.695312 204.542969 121.109375 205.894531 C 121.519531 207.25 121.992188 208.578125 122.535156 209.882812 C 123.074219 211.191406 123.679688 212.464844 124.34375 213.714844 C 125.011719 214.960938 125.738281 216.171875 126.523438 217.347656 C 127.308594 218.523438 128.148438 219.65625 129.046875 220.75 C 129.941406 221.84375 130.890625 222.886719 131.890625 223.886719 Z M 132.988281 224.984375 " fill-opacity="1" fill-rule="nonzero"/><path fill="#99daff" d="M 223.019531 180.636719 L 220.539062 183.117188 C 218.855469 184.800781 216.914062 186.097656 214.714844 187.007812 C 212.515625 187.917969 210.226562 188.375 207.847656 188.375 L 195.871094 188.375 L 186.703125 197.542969 C 186.238281 198.007812 185.730469 198.425781 185.183594 198.789062 C 184.636719 199.15625 184.058594 199.464844 183.449219 199.714844 C 182.839844 199.96875 182.214844 200.15625 181.570312 200.285156 C 180.925781 200.414062 180.273438 200.476562 179.613281 200.476562 C 178.957031 200.476562 178.304688 200.414062 177.660156 200.285156 C 177.011719 200.15625 176.386719 199.96875 175.777344 199.714844 C 175.171875 199.464844 174.59375 199.15625 174.046875 198.789062 C 173.5 198.425781 172.992188 198.007812 172.527344 197.542969 C 172.058594 197.078125 171.644531 196.574219 171.277344 196.023438 C 170.914062 195.476562 170.605469 194.898438 170.351562 194.292969 C 170.101562 193.683594 169.910156 193.058594 169.78125 192.410156 C 169.652344 191.765625 169.589844 191.113281 169.589844 190.457031 C 169.589844 189.796875 169.652344 189.144531 169.78125 188.5 C 169.910156 187.855469 170.101562 187.226562 170.351562 186.621094 C 170.605469 186.011719 170.914062 185.433594 171.277344 184.886719 C 171.644531 184.339844 172.058594 183.832031 172.527344 183.367188 L 193.457031 162.433594 C 194.472656 161.417969 195.535156 160.457031 196.644531 159.546875 C 197.75 158.636719 198.902344 157.785156 200.09375 156.988281 C 201.289062 156.191406 202.515625 155.453125 203.78125 154.777344 C 205.046875 154.101562 206.339844 153.488281 207.667969 152.941406 C 208.992188 152.390625 210.339844 151.910156 211.710938 151.492188 C 213.085938 151.078125 214.472656 150.730469 215.882812 150.449219 C 217.289062 150.171875 218.703125 149.960938 220.132812 149.820312 C 221.558594 149.679688 222.992188 149.609375 224.425781 149.609375 C 225.859375 149.609375 227.289062 149.679688 228.714844 149.820312 C 230.144531 149.960938 231.5625 150.171875 232.96875 150.449219 C 234.375 150.730469 235.765625 151.078125 237.136719 151.492188 C 238.507812 151.910156 239.859375 152.390625 241.183594 152.941406 C 242.507812 153.488281 243.804688 154.101562 245.066406 154.777344 C 246.332031 155.453125 247.5625 156.191406 248.753906 156.988281 C 249.945312 157.785156 251.097656 158.636719 252.207031 159.546875 C 253.316406 160.457031 254.375 161.417969 255.390625 162.433594 C 256.40625 163.445312 257.367188 164.507812 258.277344 165.617188 C 259.1875 166.726562 260.039062 167.875 260.835938 169.066406 C 261.632812 170.261719 262.371094 171.488281 263.046875 172.753906 C 263.722656 174.019531 264.335938 175.316406 264.882812 176.640625 C 265.433594 177.964844 265.914062 179.3125 266.332031 180.6875 C 266.75 182.058594 267.097656 183.449219 267.375 184.855469 C 267.65625 186.261719 267.867188 187.679688 268.007812 189.105469 C 268.148438 190.535156 268.21875 191.964844 268.21875 193.398438 C 268.21875 194.832031 268.148438 196.265625 268.007812 197.691406 C 267.867188 199.117188 267.65625 200.535156 267.375 201.941406 C 267.097656 203.347656 266.75 204.738281 266.332031 206.109375 C 265.914062 207.484375 265.433594 208.832031 264.882812 210.15625 C 264.335938 211.484375 263.722656 212.777344 263.046875 214.042969 C 262.371094 215.308594 261.632812 216.535156 260.835938 217.730469 C 260.039062 218.921875 259.1875 220.070312 258.277344 221.179688 C 257.367188 222.289062 256.40625 223.351562 255.390625 224.363281 L 249.492188 230.261719 L 248.050781 225.492188 L 209.769531 188.269531 M 189.417969 251.75 C 189.027344 251.359375 188.601562 251.011719 188.140625 250.703125 C 187.683594 250.398438 187.199219 250.136719 186.6875 249.925781 C 186.175781 249.714844 185.652344 249.554688 185.109375 249.449219 C 184.566406 249.339844 184.019531 249.285156 183.46875 249.285156 C 182.914062 249.285156 182.367188 249.339844 181.824219 249.449219 C 181.285156 249.554688 180.757812 249.714844 180.246094 249.925781 C 179.738281 250.136719 179.25 250.398438 178.792969 250.703125 C 178.332031 251.011719 177.90625 251.359375 177.515625 251.75 C 177.898438 251.359375 178.234375 250.929688 178.535156 250.472656 C 178.832031 250.011719 179.082031 249.53125 179.285156 249.023438 C 179.488281 248.515625 179.640625 247.992188 179.742188 247.453125 C 179.839844 246.917969 179.890625 246.375 179.886719 245.828125 C 179.882812 245.28125 179.824219 244.738281 179.714844 244.203125 C 179.605469 243.667969 179.441406 243.148438 179.230469 242.640625 C 179.019531 242.136719 178.761719 241.65625 178.457031 241.203125 C 178.152344 240.75 177.804688 240.328125 177.417969 239.941406 C 177.03125 239.554688 176.613281 239.210938 176.15625 238.90625 C 175.703125 238.601562 175.222656 238.34375 174.71875 238.132812 C 174.214844 237.921875 173.695312 237.757812 173.160156 237.648438 C 172.621094 237.539062 172.082031 237.484375 171.535156 237.476562 C 170.988281 237.472656 170.445312 237.523438 169.90625 237.625 C 169.371094 237.726562 168.847656 237.878906 168.339844 238.082031 C 167.832031 238.285156 167.347656 238.535156 166.890625 238.832031 C 166.429688 239.128906 166.003906 239.46875 165.609375 239.847656 L 160.371094 245.085938 C 159.980469 245.476562 159.628906 245.902344 159.324219 246.363281 C 159.015625 246.820312 158.757812 247.304688 158.546875 247.816406 C 158.335938 248.328125 158.175781 248.855469 158.066406 249.394531 C 157.957031 249.9375 157.90625 250.484375 157.90625 251.039062 C 157.90625 251.589844 157.957031 252.136719 158.066406 252.679688 C 158.171875 253.222656 158.332031 253.746094 158.542969 254.257812 C 158.757812 254.769531 159.015625 255.253906 159.320312 255.714844 C 159.628906 256.171875 159.976562 256.597656 160.367188 256.988281 C 160.757812 257.378906 161.183594 257.730469 161.644531 258.035156 C 162.101562 258.34375 162.585938 258.601562 163.097656 258.816406 C 163.609375 259.027344 164.132812 259.1875 164.675781 259.292969 C 165.21875 259.402344 165.765625 259.457031 166.320312 259.457031 C 166.871094 259.457031 167.417969 259.402344 167.960938 259.296875 C 168.503906 259.1875 169.027344 259.03125 169.539062 258.820312 C 170.050781 258.605469 170.535156 258.347656 170.996094 258.042969 C 171.457031 257.734375 171.878906 257.386719 172.273438 256.996094 C 171.859375 257.382812 171.492188 257.804688 171.167969 258.265625 C 170.84375 258.726562 170.566406 259.210938 170.335938 259.726562 C 170.109375 260.242188 169.9375 260.777344 169.816406 261.328125 C 169.695312 261.878906 169.628906 262.433594 169.621094 263 C 169.613281 263.5625 169.660156 264.121094 169.765625 264.675781 C 169.867188 265.226562 170.023438 265.765625 170.238281 266.289062 C 170.449219 266.8125 170.710938 267.308594 171.019531 267.777344 C 171.332031 268.246094 171.6875 268.679688 172.085938 269.078125 C 172.484375 269.476562 172.917969 269.832031 173.386719 270.144531 C 173.855469 270.457031 174.351562 270.71875 174.875 270.929688 C 175.398438 271.140625 175.9375 271.296875 176.488281 271.402344 C 177.042969 271.503906 177.601562 271.554688 178.164062 271.542969 C 178.730469 271.535156 179.285156 271.472656 179.835938 271.351562 C 180.386719 271.230469 180.921875 271.058594 181.4375 270.828125 C 181.953125 270.601562 182.441406 270.324219 182.898438 270 C 183.359375 269.675781 183.78125 269.308594 184.167969 268.898438 L 189.410156 263.65625 C 189.800781 263.265625 190.148438 262.839844 190.457031 262.382812 C 190.765625 261.921875 191.023438 261.4375 191.234375 260.925781 C 191.449219 260.414062 191.605469 259.890625 191.714844 259.347656 C 191.824219 258.804688 191.878906 258.257812 191.878906 257.707031 C 191.878906 257.152344 191.824219 256.605469 191.71875 256.0625 C 191.609375 255.519531 191.449219 254.996094 191.238281 254.484375 C 191.027344 253.972656 190.769531 253.488281 190.464844 253.027344 C 190.15625 252.566406 189.808594 252.140625 189.417969 251.75 Z M 165.609375 239.847656 C 166.003906 239.457031 166.351562 239.035156 166.660156 238.574219 C 166.96875 238.113281 167.226562 237.628906 167.4375 237.117188 C 167.652344 236.605469 167.8125 236.082031 167.917969 235.539062 C 168.027344 234.996094 168.082031 234.449219 168.082031 233.894531 C 168.082031 233.34375 168.027344 232.792969 167.921875 232.253906 C 167.8125 231.710938 167.652344 231.183594 167.441406 230.671875 C 167.230469 230.160156 166.96875 229.675781 166.664062 229.214844 C 166.355469 228.753906 166.007812 228.332031 165.617188 227.9375 C 165.222656 227.546875 164.800781 227.199219 164.339844 226.890625 C 163.878906 226.585938 163.394531 226.324219 162.882812 226.113281 C 162.371094 225.902344 161.84375 225.742188 161.304688 225.636719 C 160.761719 225.527344 160.210938 225.472656 159.660156 225.472656 C 159.105469 225.472656 158.558594 225.527344 158.015625 225.636719 C 157.472656 225.746094 156.949219 225.902344 156.4375 226.117188 C 155.925781 226.328125 155.441406 226.589844 154.980469 226.894531 C 154.523438 227.203125 154.097656 227.550781 153.707031 227.945312 C 154.097656 227.554688 154.445312 227.128906 154.753906 226.667969 C 155.058594 226.207031 155.320312 225.722656 155.53125 225.210938 C 155.742188 224.703125 155.902344 224.175781 156.007812 223.632812 C 156.117188 223.089844 156.171875 222.542969 156.171875 221.992188 C 156.171875 221.4375 156.117188 220.890625 156.007812 220.347656 C 155.902344 219.804688 155.742188 219.28125 155.53125 218.769531 C 155.320312 218.257812 155.058594 217.773438 154.753906 217.3125 C 154.445312 216.855469 154.097656 216.429688 153.707031 216.039062 C 153.316406 215.648438 152.890625 215.296875 152.429688 214.992188 C 151.96875 214.683594 151.484375 214.425781 150.972656 214.214844 C 150.464844 214.003906 149.9375 213.84375 149.394531 213.734375 C 148.851562 213.625 148.304688 213.574219 147.753906 213.574219 C 147.199219 213.574219 146.652344 213.625 146.109375 213.734375 C 145.570312 213.84375 145.042969 214.003906 144.53125 214.214844 C 144.019531 214.425781 143.535156 214.683594 143.074219 214.992188 C 142.617188 215.296875 142.191406 215.648438 141.800781 216.039062 L 136.5625 221.28125 C 136.183594 221.671875 135.84375 222.097656 135.546875 222.558594 C 135.25 223.015625 135 223.5 134.792969 224.007812 C 134.589844 224.515625 134.4375 225.039062 134.335938 225.574219 C 134.238281 226.113281 134.1875 226.65625 134.191406 227.203125 C 134.195312 227.75 134.253906 228.289062 134.363281 228.828125 C 134.472656 229.363281 134.632812 229.882812 134.84375 230.386719 C 135.054688 230.890625 135.316406 231.371094 135.621094 231.824219 C 135.925781 232.28125 136.269531 232.699219 136.65625 233.085938 C 137.042969 233.472656 137.464844 233.820312 137.917969 234.125 C 138.371094 234.429688 138.851562 234.6875 139.355469 234.898438 C 139.859375 235.109375 140.378906 235.273438 140.917969 235.382812 C 141.453125 235.492188 141.992188 235.550781 142.539062 235.554688 C 143.085938 235.558594 143.628906 235.511719 144.167969 235.410156 C 144.707031 235.308594 145.226562 235.15625 145.734375 234.953125 C 146.242188 234.75 146.726562 234.5 147.1875 234.203125 C 147.644531 233.902344 148.070312 233.566406 148.464844 233.183594 C 148.085938 233.578125 147.746094 234.003906 147.449219 234.464844 C 147.152344 234.921875 146.898438 235.40625 146.695312 235.914062 C 146.496094 236.421875 146.34375 236.945312 146.242188 237.480469 C 146.140625 238.019531 146.089844 238.5625 146.097656 239.109375 C 146.101562 239.65625 146.15625 240.195312 146.269531 240.734375 C 146.378906 241.269531 146.539062 241.789062 146.75 242.292969 C 146.960938 242.796875 147.21875 243.277344 147.523438 243.730469 C 147.828125 244.1875 148.175781 244.605469 148.5625 244.992188 C 148.949219 245.378906 149.371094 245.726562 149.824219 246.03125 C 150.277344 246.335938 150.757812 246.59375 151.261719 246.804688 C 151.765625 247.015625 152.285156 247.175781 152.824219 247.285156 C 153.359375 247.394531 153.898438 247.453125 154.445312 247.457031 C 154.992188 247.460938 155.535156 247.414062 156.074219 247.3125 C 156.609375 247.210938 157.132812 247.058594 157.640625 246.855469 C 158.148438 246.652344 158.632812 246.402344 159.09375 246.101562 C 159.550781 245.804688 159.976562 245.464844 160.371094 245.085938 Z M 165.609375 239.847656 " fill-opacity="1" fill-rule="nonzero"/><path fill="#fefefe" d="M 189.859375 251.308594 C 189.21875 250.667969 188.496094 250.132812 187.691406 249.710938 C 186.890625 249.285156 186.042969 248.988281 185.148438 248.816406 C 184.257812 248.648438 183.359375 248.613281 182.457031 248.714844 C 181.554688 248.816406 180.6875 249.046875 179.855469 249.410156 C 180.003906 249.066406 180.132812 248.714844 180.238281 248.355469 C 180.34375 247.996094 180.425781 247.632812 180.488281 247.265625 C 180.546875 246.894531 180.585938 246.523438 180.601562 246.152344 C 180.613281 245.777344 180.605469 245.40625 180.574219 245.03125 C 180.542969 244.660156 180.488281 244.289062 180.410156 243.925781 C 180.332031 243.558594 180.234375 243.199219 180.113281 242.847656 C 179.988281 242.492188 179.847656 242.148438 179.679688 241.8125 C 179.515625 241.476562 179.332031 241.152344 179.125 240.839844 C 178.921875 240.527344 178.699219 240.230469 178.457031 239.945312 C 178.214844 239.660156 177.957031 239.390625 177.679688 239.136719 C 177.40625 238.882812 177.113281 238.648438 176.808594 238.433594 C 176.503906 238.214844 176.1875 238.019531 175.859375 237.839844 C 175.53125 237.664062 175.191406 237.507812 174.84375 237.371094 C 174.496094 237.234375 174.140625 237.121094 173.777344 237.03125 C 173.414062 236.9375 173.046875 236.871094 172.675781 236.824219 C 172.304688 236.777344 171.933594 236.753906 171.558594 236.753906 C 170.300781 236.757812 169.089844 237.007812 167.9375 237.515625 C 168.304688 236.683594 168.539062 235.816406 168.644531 234.910156 C 168.75 234.007812 168.71875 233.109375 168.550781 232.214844 C 168.386719 231.320312 168.089844 230.46875 167.667969 229.664062 C 167.242188 228.859375 166.710938 228.136719 166.070312 227.492188 C 165.425781 226.847656 164.703125 226.3125 163.902344 225.882812 C 163.097656 225.457031 162.25 225.160156 161.355469 224.992188 C 160.460938 224.820312 159.5625 224.785156 158.660156 224.886719 C 157.753906 224.988281 156.886719 225.222656 156.050781 225.585938 C 156.261719 225.105469 156.425781 224.613281 156.550781 224.105469 C 156.671875 223.597656 156.75 223.082031 156.785156 222.558594 C 156.816406 222.039062 156.804688 221.519531 156.75 221 C 156.691406 220.480469 156.59375 219.96875 156.445312 219.464844 C 156.300781 218.964844 156.113281 218.476562 155.886719 218.007812 C 155.65625 217.539062 155.386719 217.089844 155.082031 216.667969 C 154.773438 216.246094 154.433594 215.851562 154.058594 215.488281 C 153.683594 215.125 153.28125 214.792969 152.847656 214.5 C 152.414062 214.207031 151.960938 213.949219 151.484375 213.734375 C 151.007812 213.519531 150.519531 213.347656 150.011719 213.214844 C 149.503906 213.085938 148.992188 213 148.472656 212.960938 C 147.949219 212.917969 147.429688 212.921875 146.910156 212.96875 C 146.386719 213.019531 145.875 213.113281 145.371094 213.25 C 144.867188 213.386719 144.378906 213.570312 143.90625 213.792969 C 143.433594 214.015625 142.980469 214.273438 142.554688 214.574219 C 142.128906 214.875 141.726562 215.210938 141.359375 215.582031 L 136.117188 220.839844 C 135.746094 221.207031 135.40625 221.605469 135.101562 222.03125 C 134.800781 222.460938 134.535156 222.910156 134.308594 223.386719 C 134.082031 223.859375 133.902344 224.347656 133.761719 224.855469 C 133.621094 225.359375 133.523438 225.875 133.472656 226.394531 C 133.421875 226.917969 133.417969 227.441406 133.457031 227.964844 C 133.5 228.484375 133.582031 229 133.714844 229.511719 C 133.84375 230.019531 134.015625 230.511719 134.230469 230.988281 C 134.445312 231.46875 134.703125 231.925781 134.996094 232.359375 C 135.292969 232.792969 135.621094 233.195312 135.988281 233.574219 C 136.355469 233.949219 136.75 234.292969 137.171875 234.597656 C 137.597656 234.90625 138.046875 235.175781 138.519531 235.40625 C 138.992188 235.632812 139.476562 235.820312 139.984375 235.964844 C 140.488281 236.109375 141 236.210938 141.519531 236.265625 C 142.042969 236.320312 142.566406 236.332031 143.089844 236.296875 C 143.613281 236.261719 144.128906 236.179688 144.636719 236.054688 C 145.148438 235.929688 145.640625 235.761719 146.121094 235.550781 C 145.757812 236.382812 145.527344 237.253906 145.425781 238.15625 C 145.324219 239.058594 145.359375 239.960938 145.53125 240.851562 C 145.699219 241.746094 146 242.59375 146.425781 243.398438 C 146.851562 244.199219 147.386719 244.921875 148.03125 245.566406 C 148.675781 246.207031 149.398438 246.738281 150.203125 247.160156 C 151.007812 247.585938 151.859375 247.878906 152.753906 248.046875 C 153.648438 248.210938 154.546875 248.242188 155.449219 248.140625 C 156.351562 248.035156 157.21875 247.800781 158.050781 247.433594 C 157.683594 248.265625 157.449219 249.132812 157.34375 250.039062 C 157.238281 250.941406 157.269531 251.839844 157.4375 252.734375 C 157.601562 253.628906 157.898438 254.480469 158.320312 255.285156 C 158.746094 256.089844 159.277344 256.816406 159.917969 257.460938 C 160.5625 258.105469 161.285156 258.640625 162.089844 259.066406 C 162.894531 259.492188 163.742188 259.789062 164.636719 259.960938 C 165.53125 260.128906 166.429688 260.164062 167.335938 260.0625 C 168.238281 259.960938 169.109375 259.726562 169.941406 259.363281 C 169.734375 259.839844 169.566406 260.335938 169.445312 260.84375 C 169.324219 261.351562 169.246094 261.863281 169.210938 262.386719 C 169.179688 262.90625 169.191406 263.425781 169.246094 263.945312 C 169.304688 264.464844 169.40625 264.976562 169.550781 265.476562 C 169.695312 265.980469 169.882812 266.464844 170.113281 266.933594 C 170.339844 267.402344 170.609375 267.851562 170.914062 268.273438 C 171.222656 268.695312 171.5625 269.089844 171.9375 269.453125 C 172.3125 269.816406 172.714844 270.144531 173.148438 270.441406 C 173.578125 270.734375 174.03125 270.988281 174.507812 271.203125 C 174.984375 271.417969 175.476562 271.59375 175.980469 271.722656 C 176.488281 271.855469 177 271.941406 177.519531 271.980469 C 178.042969 272.023438 178.5625 272.019531 179.082031 271.96875 C 179.601562 271.921875 180.113281 271.828125 180.617188 271.691406 C 181.121094 271.554688 181.609375 271.375 182.082031 271.152344 C 182.554688 270.929688 183.007812 270.667969 183.433594 270.371094 C 183.863281 270.070312 184.261719 269.734375 184.628906 269.367188 L 189.867188 264.125 C 190.289062 263.703125 190.664062 263.246094 190.996094 262.753906 C 191.328125 262.257812 191.605469 261.734375 191.832031 261.183594 C 192.0625 260.636719 192.234375 260.066406 192.347656 259.484375 C 192.464844 258.902344 192.523438 258.3125 192.523438 257.714844 C 192.523438 257.121094 192.464844 256.53125 192.347656 255.945312 C 192.230469 255.363281 192.058594 254.796875 191.828125 254.246094 C 191.601562 253.699219 191.320312 253.175781 190.988281 252.679688 C 190.65625 252.1875 190.28125 251.730469 189.859375 251.308594 Z M 148.902344 244.644531 C 148.539062 244.28125 148.21875 243.890625 147.933594 243.464844 C 147.652344 243.039062 147.410156 242.589844 147.214844 242.117188 C 147.019531 241.644531 146.875 241.15625 146.773438 240.65625 C 146.675781 240.152344 146.625 239.648438 146.625 239.136719 C 146.625 238.625 146.675781 238.117188 146.773438 237.617188 C 146.875 237.113281 147.019531 236.628906 147.214844 236.15625 C 147.410156 235.683594 147.652344 235.234375 147.933594 234.808594 C 148.21875 234.382812 148.539062 233.988281 148.902344 233.625 C 149.039062 233.507812 149.109375 233.355469 149.113281 233.175781 C 149.121094 232.992188 149.058594 232.839844 148.929688 232.710938 C 148.804688 232.582031 148.648438 232.519531 148.46875 232.527344 C 148.285156 232.53125 148.136719 232.601562 148.015625 232.738281 C 147.652344 233.101562 147.261719 233.425781 146.835938 233.707031 C 146.410156 233.992188 145.960938 234.234375 145.488281 234.429688 C 145.015625 234.625 144.527344 234.773438 144.027344 234.871094 C 143.527344 234.972656 143.019531 235.023438 142.507812 235.023438 C 141.996094 235.023438 141.488281 234.972656 140.988281 234.871094 C 140.484375 234.773438 140 234.625 139.527344 234.429688 C 139.054688 234.234375 138.605469 233.992188 138.179688 233.710938 C 137.753906 233.425781 137.359375 233.101562 137 232.742188 C 136.636719 232.378906 136.3125 231.988281 136.03125 231.5625 C 135.746094 231.136719 135.503906 230.6875 135.308594 230.214844 C 135.113281 229.742188 134.964844 229.253906 134.867188 228.753906 C 134.765625 228.25 134.714844 227.746094 134.714844 227.234375 C 134.714844 226.722656 134.765625 226.214844 134.867188 225.714844 C 134.964844 225.210938 135.113281 224.726562 135.308594 224.253906 C 135.503906 223.78125 135.742188 223.332031 136.027344 222.90625 C 136.3125 222.480469 136.636719 222.085938 136.996094 221.726562 L 142.238281 216.484375 C 142.601562 216.132812 142.996094 215.820312 143.421875 215.546875 C 143.84375 215.269531 144.292969 215.039062 144.761719 214.851562 C 145.230469 214.667969 145.714844 214.527344 146.210938 214.433594 C 146.710938 214.339844 147.210938 214.296875 147.714844 214.300781 C 148.222656 214.304688 148.722656 214.359375 149.21875 214.460938 C 149.710938 214.5625 150.191406 214.710938 150.660156 214.90625 C 151.125 215.101562 151.570312 215.339844 151.988281 215.621094 C 152.410156 215.902344 152.796875 216.222656 153.15625 216.582031 C 153.511719 216.9375 153.832031 217.328125 154.113281 217.746094 C 154.394531 218.167969 154.632812 218.609375 154.828125 219.078125 C 155.023438 219.542969 155.175781 220.023438 155.277344 220.519531 C 155.378906 221.015625 155.429688 221.515625 155.4375 222.019531 C 155.441406 222.527344 155.394531 223.027344 155.304688 223.523438 C 155.210938 224.019531 155.070312 224.503906 154.882812 224.972656 C 154.695312 225.445312 154.464844 225.890625 154.191406 226.316406 C 153.917969 226.742188 153.601562 227.132812 153.253906 227.5 C 153.128906 227.621094 153.070312 227.769531 153.070312 227.945312 C 153.070312 228.117188 153.128906 228.265625 153.253906 228.390625 C 153.375 228.511719 153.523438 228.570312 153.699219 228.570312 C 153.871094 228.570312 154.019531 228.511719 154.144531 228.390625 C 154.503906 228.015625 154.894531 227.683594 155.320312 227.390625 C 155.746094 227.09375 156.195312 226.847656 156.671875 226.640625 C 157.148438 226.4375 157.636719 226.28125 158.144531 226.175781 C 158.648438 226.070312 159.160156 226.011719 159.679688 226.007812 C 160.195312 226.003906 160.710938 226.050781 161.21875 226.148438 C 161.726562 226.246094 162.21875 226.390625 162.699219 226.589844 C 163.175781 226.785156 163.632812 227.023438 164.0625 227.3125 C 164.492188 227.597656 164.890625 227.925781 165.257812 228.289062 C 165.621094 228.65625 165.949219 229.054688 166.234375 229.484375 C 166.523438 229.914062 166.761719 230.371094 166.960938 230.847656 C 167.15625 231.328125 167.300781 231.820312 167.398438 232.328125 C 167.496094 232.835938 167.542969 233.351562 167.539062 233.867188 C 167.535156 234.386719 167.476562 234.898438 167.371094 235.402344 C 167.265625 235.910156 167.109375 236.398438 166.90625 236.875 C 166.699219 237.351562 166.453125 237.800781 166.15625 238.226562 C 165.863281 238.652344 165.53125 239.042969 165.15625 239.402344 L 159.914062 244.644531 C 159.550781 245.003906 159.15625 245.328125 158.734375 245.609375 C 158.308594 245.890625 157.859375 246.132812 157.386719 246.324219 C 156.914062 246.519531 156.429688 246.667969 155.929688 246.765625 C 155.425781 246.867188 154.921875 246.917969 154.410156 246.917969 C 153.902344 246.917969 153.394531 246.867188 152.894531 246.765625 C 152.394531 246.667969 151.90625 246.519531 151.433594 246.324219 C 150.964844 246.132812 150.515625 245.890625 150.089844 245.609375 C 149.664062 245.328125 149.273438 245.003906 148.910156 244.644531 Z M 188.964844 263.210938 L 183.730469 268.453125 C 183.371094 268.8125 182.976562 269.136719 182.550781 269.421875 C 182.125 269.703125 181.675781 269.945312 181.203125 270.140625 C 180.730469 270.335938 180.246094 270.484375 179.742188 270.585938 C 179.242188 270.683594 178.734375 270.734375 178.222656 270.734375 C 177.710938 270.734375 177.207031 270.683594 176.703125 270.585938 C 176.203125 270.484375 175.714844 270.335938 175.242188 270.140625 C 174.769531 269.945312 174.320312 269.707031 173.894531 269.421875 C 173.46875 269.136719 173.078125 268.816406 172.714844 268.453125 C 172.351562 268.09375 172.03125 267.699219 171.746094 267.273438 C 171.460938 266.847656 171.222656 266.398438 171.027344 265.925781 C 170.828125 265.453125 170.683594 264.96875 170.582031 264.464844 C 170.480469 263.964844 170.433594 263.457031 170.433594 262.945312 C 170.433594 262.433594 170.480469 261.925781 170.582031 261.425781 C 170.679688 260.925781 170.828125 260.4375 171.023438 259.964844 C 171.21875 259.492188 171.460938 259.042969 171.746094 258.617188 C 172.027344 258.191406 172.351562 257.796875 172.714844 257.4375 C 172.824219 257.3125 172.875 257.167969 172.871094 257 C 172.863281 256.835938 172.804688 256.695312 172.6875 256.578125 C 172.570312 256.460938 172.425781 256.398438 172.261719 256.394531 C 172.09375 256.386719 171.949219 256.441406 171.828125 256.550781 C 171.464844 256.910156 171.070312 257.234375 170.644531 257.519531 C 170.21875 257.800781 169.769531 258.039062 169.296875 258.234375 C 168.824219 258.429688 168.339844 258.578125 167.835938 258.679688 C 167.335938 258.777344 166.828125 258.828125 166.316406 258.828125 C 165.804688 258.824219 165.300781 258.777344 164.796875 258.675781 C 164.296875 258.574219 163.808594 258.425781 163.335938 258.230469 C 162.867188 258.035156 162.417969 257.796875 161.992188 257.511719 C 161.566406 257.226562 161.171875 256.902344 160.8125 256.542969 C 160.449219 256.179688 160.128906 255.785156 159.84375 255.359375 C 159.558594 254.9375 159.320312 254.488281 159.125 254.015625 C 158.929688 253.542969 158.78125 253.054688 158.683594 252.554688 C 158.582031 252.050781 158.535156 251.546875 158.535156 251.035156 C 158.535156 250.523438 158.582031 250.015625 158.683594 249.515625 C 158.785156 249.011719 158.929688 248.527344 159.128906 248.054688 C 159.324219 247.582031 159.5625 247.132812 159.847656 246.707031 C 160.132812 246.28125 160.453125 245.890625 160.816406 245.527344 L 166.054688 240.285156 C 166.417969 239.925781 166.8125 239.601562 167.238281 239.316406 C 167.660156 239.035156 168.109375 238.792969 168.582031 238.597656 C 169.054688 238.402344 169.542969 238.253906 170.042969 238.152344 C 170.546875 238.054688 171.054688 238.003906 171.5625 238.003906 C 172.074219 238.003906 172.582031 238.054688 173.085938 238.152344 C 173.585938 238.253906 174.074219 238.402344 174.546875 238.597656 C 175.019531 238.792969 175.46875 239.03125 175.890625 239.316406 C 176.316406 239.601562 176.710938 239.921875 177.074219 240.285156 C 177.433594 240.644531 177.757812 241.039062 178.042969 241.464844 C 178.328125 241.890625 178.566406 242.339844 178.761719 242.8125 C 178.957031 243.285156 179.105469 243.769531 179.207031 244.273438 C 179.304688 244.773438 179.355469 245.28125 179.355469 245.792969 C 179.355469 246.304688 179.304688 246.8125 179.207031 247.3125 C 179.105469 247.8125 178.957031 248.300781 178.761719 248.773438 C 178.566406 249.246094 178.328125 249.695312 178.042969 250.121094 C 177.757812 250.546875 177.4375 250.941406 177.074219 251.300781 C 176.953125 251.425781 176.890625 251.574219 176.890625 251.746094 C 176.890625 251.921875 176.953125 252.070312 177.078125 252.191406 C 177.199219 252.3125 177.347656 252.375 177.523438 252.375 C 177.695312 252.375 177.84375 252.3125 177.964844 252.1875 C 178.328125 251.835938 178.722656 251.523438 179.148438 251.25 C 179.574219 250.976562 180.019531 250.746094 180.492188 250.558594 C 180.960938 250.371094 181.445312 250.230469 181.941406 250.140625 C 182.4375 250.046875 182.941406 250.003906 183.445312 250.007812 C 183.949219 250.011719 184.449219 250.066406 184.945312 250.167969 C 185.441406 250.269531 185.921875 250.417969 186.386719 250.613281 C 186.855469 250.808594 187.296875 251.046875 187.71875 251.332031 C 188.136719 251.613281 188.523438 251.933594 188.882812 252.289062 C 189.238281 252.648438 189.558594 253.035156 189.839844 253.457031 C 190.121094 253.875 190.363281 254.320312 190.558594 254.785156 C 190.753906 255.25 190.902344 255.734375 191.003906 256.226562 C 191.105469 256.722656 191.15625 257.222656 191.160156 257.730469 C 191.167969 258.234375 191.121094 258.734375 191.027344 259.234375 C 190.933594 259.730469 190.796875 260.214844 190.609375 260.683594 C 190.421875 261.152344 190.1875 261.597656 189.914062 262.023438 C 189.640625 262.449219 189.328125 262.84375 188.976562 263.207031 Z M 188.964844 263.210938 " fill-opacity="1" fill-rule="nonzero"/><path fill="#fefefe" d="M 249.492188 230.898438 C 249.183594 230.894531 248.984375 230.746094 248.894531 230.449219 L 247.496094 225.824219 L 209.546875 188.933594 C 208.984375 188.984375 208.417969 189.011719 207.847656 189.011719 L 196.128906 189.011719 L 187.148438 197.996094 C 186.652344 198.492188 186.113281 198.933594 185.53125 199.324219 C 184.953125 199.710938 184.335938 200.039062 183.691406 200.308594 C 183.042969 200.574219 182.378906 200.777344 181.691406 200.914062 C 181.007812 201.050781 180.3125 201.117188 179.613281 201.117188 C 178.914062 201.117188 178.222656 201.050781 177.535156 200.914062 C 176.847656 200.777344 176.183594 200.574219 175.535156 200.308594 C 174.890625 200.039062 174.277344 199.710938 173.695312 199.324219 C 173.113281 198.933594 172.574219 198.492188 172.082031 197.996094 C 171.585938 197.503906 171.144531 196.964844 170.753906 196.382812 C 170.367188 195.800781 170.039062 195.1875 169.769531 194.542969 C 169.503906 193.894531 169.300781 193.230469 169.164062 192.542969 C 169.027344 191.855469 168.960938 191.164062 168.960938 190.464844 C 168.960938 189.765625 169.027344 189.070312 169.164062 188.386719 C 169.300781 187.699219 169.503906 187.035156 169.769531 186.386719 C 170.039062 185.742188 170.367188 185.125 170.753906 184.546875 C 171.144531 183.964844 171.585938 183.425781 172.082031 182.929688 L 193.015625 162 C 194.046875 160.96875 195.121094 159.992188 196.246094 159.070312 C 197.371094 158.148438 198.539062 157.28125 199.75 156.472656 C 200.957031 155.664062 202.203125 154.917969 203.488281 154.234375 C 204.769531 153.546875 206.085938 152.925781 207.429688 152.367188 C 208.773438 151.8125 210.140625 151.320312 211.535156 150.898438 C 212.925781 150.476562 214.335938 150.125 215.761719 149.839844 C 217.191406 149.554688 218.628906 149.34375 220.074219 149.199219 C 221.523438 149.058594 222.976562 148.988281 224.429688 148.988281 C 225.886719 148.988281 227.335938 149.058594 228.785156 149.199219 C 230.234375 149.34375 231.671875 149.554688 233.097656 149.839844 C 234.523438 150.125 235.933594 150.476562 237.328125 150.898438 C 238.71875 151.320312 240.085938 151.8125 241.429688 152.367188 C 242.777344 152.925781 244.089844 153.546875 245.371094 154.234375 C 246.65625 154.917969 247.902344 155.664062 249.113281 156.472656 C 250.320312 157.28125 251.488281 158.148438 252.613281 159.070312 C 253.738281 159.992188 254.816406 160.96875 255.84375 162 C 256.875 163.027344 257.847656 164.105469 258.773438 165.230469 C 259.695312 166.355469 260.5625 167.519531 261.371094 168.730469 C 262.175781 169.941406 262.925781 171.1875 263.609375 172.46875 C 264.296875 173.753906 264.917969 175.066406 265.472656 176.410156 C 266.03125 177.753906 266.519531 179.125 266.941406 180.515625 C 267.367188 181.910156 267.71875 183.320312 268.003906 184.746094 C 268.285156 186.171875 268.5 187.609375 268.640625 189.058594 C 268.785156 190.507812 268.855469 191.957031 268.855469 193.414062 C 268.855469 194.867188 268.785156 196.320312 268.640625 197.765625 C 268.5 199.214844 268.285156 200.652344 268.003906 202.078125 C 267.71875 203.507812 267.367188 204.917969 266.941406 206.308594 C 266.519531 207.699219 266.03125 209.070312 265.472656 210.414062 C 264.917969 211.757812 264.296875 213.070312 263.609375 214.355469 C 262.925781 215.636719 262.175781 216.882812 261.371094 218.09375 C 260.5625 219.304688 259.695312 220.472656 258.773438 221.597656 C 257.847656 222.71875 256.875 223.796875 255.84375 224.828125 L 249.9375 230.703125 C 249.816406 230.828125 249.667969 230.894531 249.492188 230.898438 Z M 211.128906 188.714844 L 248.488281 225.027344 C 248.566406 225.105469 248.617188 225.195312 248.652344 225.300781 L 249.792969 229.078125 L 254.960938 223.90625 C 255.960938 222.90625 256.910156 221.863281 257.804688 220.769531 C 258.703125 219.675781 259.542969 218.542969 260.328125 217.367188 C 261.113281 216.191406 261.839844 214.980469 262.503906 213.730469 C 263.171875 212.484375 263.773438 211.207031 264.316406 209.902344 C 264.855469 208.597656 265.332031 207.265625 265.742188 205.914062 C 266.152344 204.558594 266.496094 203.191406 266.769531 201.804688 C 267.046875 200.417969 267.253906 199.019531 267.390625 197.613281 C 267.527344 196.207031 267.597656 194.796875 267.597656 193.382812 C 267.597656 191.96875 267.527344 190.558594 267.386719 189.152344 C 267.25 187.746094 267.042969 186.347656 266.765625 184.960938 C 266.488281 183.574219 266.144531 182.207031 265.734375 180.851562 C 265.324219 179.5 264.847656 178.171875 264.308594 176.863281 C 263.765625 175.558594 263.164062 174.28125 262.496094 173.035156 C 261.828125 171.789062 261.101562 170.578125 260.316406 169.402344 C 259.53125 168.226562 258.691406 167.09375 257.792969 166 C 256.894531 164.910156 255.949219 163.863281 254.949219 162.863281 C 253.949219 161.863281 252.902344 160.917969 251.808594 160.019531 C 250.714844 159.121094 249.582031 158.28125 248.40625 157.496094 C 247.230469 156.710938 246.019531 155.984375 244.769531 155.320312 C 243.523438 154.652344 242.246094 154.050781 240.941406 153.511719 C 239.636719 152.96875 238.304688 152.492188 236.953125 152.082031 C 235.601562 151.671875 234.230469 151.332031 232.84375 151.054688 C 231.457031 150.78125 230.058594 150.574219 228.652344 150.433594 C 227.246094 150.296875 225.835938 150.226562 224.421875 150.226562 C 223.007812 150.226562 221.597656 150.296875 220.191406 150.4375 C 218.785156 150.574219 217.386719 150.78125 216 151.058594 C 214.617188 151.335938 213.246094 151.679688 211.894531 152.089844 C 210.539062 152.5 209.210938 152.976562 207.90625 153.515625 C 206.597656 154.058594 205.324219 154.664062 204.074219 155.328125 C 202.828125 155.996094 201.617188 156.722656 200.441406 157.507812 C 199.269531 158.292969 198.132812 159.136719 197.042969 160.03125 C 195.949219 160.929688 194.902344 161.878906 193.902344 162.878906 L 172.972656 183.808594 C 172.542969 184.246094 172.164062 184.722656 171.828125 185.234375 C 171.496094 185.746094 171.214844 186.289062 170.984375 186.855469 C 170.757812 187.421875 170.585938 188.007812 170.472656 188.609375 C 170.355469 189.210938 170.300781 189.816406 170.304688 190.425781 C 170.308594 191.039062 170.371094 191.644531 170.492188 192.242188 C 170.617188 192.84375 170.796875 193.425781 171.03125 193.988281 C 171.265625 194.554688 171.554688 195.089844 171.894531 195.597656 C 172.238281 196.105469 172.625 196.578125 173.054688 197.011719 C 173.488281 197.441406 173.957031 197.828125 174.464844 198.171875 C 174.976562 198.511719 175.511719 198.800781 176.074219 199.035156 C 176.640625 199.273438 177.222656 199.449219 177.820312 199.574219 C 178.421875 199.695312 179.027344 199.757812 179.636719 199.761719 C 180.25 199.765625 180.855469 199.710938 181.457031 199.597656 C 182.058594 199.484375 182.644531 199.3125 183.210938 199.082031 C 183.777344 198.855469 184.316406 198.574219 184.832031 198.238281 C 185.34375 197.90625 185.820312 197.527344 186.257812 197.097656 L 195.425781 187.929688 C 195.550781 187.808594 195.699219 187.746094 195.871094 187.746094 L 207.847656 187.746094 C 208.449219 187.746094 209.046875 187.714844 209.640625 187.65625 C 209.683594 187.652344 209.726562 187.652344 209.769531 187.65625 C 211.726562 187.441406 213.589844 186.910156 215.363281 186.058594 C 217.136719 185.207031 218.71875 184.082031 220.109375 182.6875 L 222.59375 180.203125 C 222.71875 180.09375 222.863281 180.042969 223.027344 180.046875 C 223.195312 180.050781 223.335938 180.113281 223.453125 180.230469 C 223.570312 180.347656 223.632812 180.488281 223.636719 180.65625 C 223.640625 180.820312 223.589844 180.964844 223.480469 181.089844 L 220.980469 183.578125 C 219.640625 184.921875 218.128906 186.03125 216.449219 186.90625 C 214.769531 187.785156 212.996094 188.386719 211.128906 188.714844 Z M 211.128906 188.714844 " fill-opacity="1" fill-rule="nonzero"/><g fill="#ffbd59" fill-opacity="1"><g transform="translate(121.172023, 248.368134)"><g/></g></g><g fill="#ffbd59" fill-opacity="1"><g transform="translate(117.934248, 244.681306)"><g/></g></g><g fill="#ffbd59" fill-opacity="1"><g transform="translate(114.958508, 240.779948)"><g/></g></g><g fill="#ffbd59" fill-opacity="1"><g transform="translate(111.772664, 237.823567)"><g><path d="M -3.96875 -11.703125 C -3.101562 -9.554688 -2.765625 -7.503906 -2.953125 -5.546875 C -3.148438 -3.585938 -3.832031 -1.851562 -5 -0.34375 C -6.175781 1.15625 -7.785156 2.320312 -9.828125 3.15625 C -11.878906 3.988281 -13.847656 4.269531 -15.734375 4 C -17.617188 3.738281 -19.3125 2.972656 -20.8125 1.703125 C -22.3125 0.429688 -23.492188 -1.273438 -24.359375 -3.421875 C -25.242188 -5.585938 -25.585938 -7.644531 -25.390625 -9.59375 C -25.203125 -11.539062 -24.523438 -13.265625 -23.359375 -14.765625 C -22.191406 -16.273438 -20.582031 -17.445312 -18.53125 -18.28125 C -16.488281 -19.113281 -14.519531 -19.394531 -12.625 -19.125 C -10.738281 -18.863281 -9.046875 -18.101562 -7.546875 -16.84375 C -6.046875 -15.582031 -4.851562 -13.867188 -3.96875 -11.703125 Z M -8.921875 -9.703125 C -9.535156 -11.203125 -10.5 -12.195312 -11.8125 -12.6875 C -13.132812 -13.1875 -14.585938 -13.113281 -16.171875 -12.46875 C -17.753906 -11.820312 -18.847656 -10.859375 -19.453125 -9.578125 C -20.054688 -8.304688 -20.050781 -6.921875 -19.4375 -5.421875 C -18.832031 -3.929688 -17.867188 -2.9375 -16.546875 -2.4375 C -15.222656 -1.945312 -13.769531 -2.023438 -12.1875 -2.671875 C -10.601562 -3.316406 -9.507812 -4.273438 -8.90625 -5.546875 C -8.3125 -6.828125 -8.316406 -8.210938 -8.921875 -9.703125 Z M -8.921875 -9.703125 "/></g></g></g><g fill="#ffbd59" fill-opacity="1"><g transform="translate(103.063342, 216.930245)"><g><path d="M -0.125 -1.5 L -20.625 0.15625 L -21.1875 -6.921875 L -8.609375 -15.21875 L -8.625 -15.265625 L -21.78125 -14.203125 L -22.25 -20.015625 L -1.75 -21.671875 L -1.171875 -14.578125 L -13.703125 -6.28125 L -13.703125 -6.234375 L -0.59375 -7.296875 Z M -0.125 -1.5 "/></g></g></g><g fill="#ffbd59" fill-opacity="1"><g transform="translate(100.957983, 195.823754)"><g><path d="M 2.953125 -10.21875 C 2.515625 -8.320312 1.6875 -6.75 0.46875 -5.5 C -0.75 -4.257812 -2.238281 -3.414062 -4 -2.96875 C -5.769531 -2.53125 -7.722656 -2.554688 -9.859375 -3.046875 C -11.992188 -3.535156 -13.765625 -4.40625 -15.171875 -5.65625 C -16.578125 -6.914062 -17.539062 -8.453125 -18.0625 -10.265625 C -18.59375 -12.085938 -18.617188 -14.066406 -18.140625 -16.203125 C -17.785156 -17.742188 -17.175781 -19.09375 -16.3125 -20.25 C -15.457031 -21.414062 -14.414062 -22.316406 -13.1875 -22.953125 C -11.96875 -23.585938 -10.628906 -23.894531 -9.171875 -23.875 L -9.4375 -18.046875 C -10.300781 -17.992188 -11.054688 -17.679688 -11.703125 -17.109375 C -12.359375 -16.535156 -12.785156 -15.8125 -12.984375 -14.9375 C -13.285156 -13.601562 -13.023438 -12.398438 -12.203125 -11.328125 C -11.378906 -10.265625 -10.132812 -9.546875 -8.46875 -9.171875 C -7.320312 -8.910156 -6.269531 -8.90625 -5.3125 -9.15625 C -4.351562 -9.414062 -3.535156 -9.890625 -2.859375 -10.578125 C -2.191406 -11.265625 -1.738281 -12.140625 -1.5 -13.203125 C -1.207031 -14.472656 -1.320312 -15.617188 -1.84375 -16.640625 C -2.363281 -17.660156 -3.160156 -18.332031 -4.234375 -18.65625 L -5.890625 -11.375 L -9.390625 -12.171875 L -6.390625 -25.359375 L 5.171875 -22.734375 L 4.1875 -18.421875 L 0.296875 -18.671875 L 0.296875 -18.640625 C 1.546875 -17.804688 2.398438 -16.628906 2.859375 -15.109375 C 3.316406 -13.585938 3.347656 -11.957031 2.953125 -10.21875 Z M 2.953125 -10.21875 "/></g></g></g><g fill="#ffbd59" fill-opacity="1"><g transform="translate(106.786204, 173.612935)"><g/></g></g><g fill="#ffbd59" fill-opacity="1"><g transform="translate(107.743429, 169.347286)"><g><path d="M 6.75 -8.78125 C 5.039062 -6.238281 3.066406 -4.6875 0.828125 -4.125 C -1.398438 -3.5625 -3.660156 -4.046875 -5.953125 -5.578125 L -16.359375 -12.546875 L -12.875 -17.734375 L -2.65625 -10.890625 C -1.738281 -10.273438 -0.835938 -10.039062 0.046875 -10.1875 C 0.941406 -10.332031 1.695312 -10.859375 2.3125 -11.765625 C 2.90625 -12.671875 3.097656 -13.550781 2.890625 -14.40625 C 2.691406 -15.269531 2.125 -16.015625 1.1875 -16.640625 L -9.03125 -23.484375 L -5.53125 -28.71875 L 4.875 -21.75 C 7.164062 -20.21875 8.476562 -18.316406 8.8125 -16.046875 C 9.144531 -13.773438 8.457031 -11.351562 6.75 -8.78125 Z M 6.75 -8.78125 "/></g></g></g><g fill="#ffbd59" fill-opacity="1"><g transform="translate(118.645806, 152.388513)"><g><path d="M 1.15625 -0.953125 L -11.96875 -16.78125 L -6.5 -21.328125 L 7.5 -15.796875 L 7.546875 -15.828125 L -0.875 -25.984375 L 3.609375 -29.703125 L 16.734375 -13.875 L 11.25 -9.328125 L -2.71875 -14.828125 L -2.75 -14.796875 L 5.640625 -4.671875 Z M 1.15625 -0.953125 "/></g></g></g><g fill="#ffbd59" fill-opacity="1"><g transform="translate(135.653007, 139.0067)"><g><path d="M 1.328125 -0.703125 L -8.28125 -18.890625 L -2.734375 -21.828125 L 6.875 -3.640625 Z M 1.328125 -0.703125 "/></g></g></g><g fill="#ffbd59" fill-opacity="1"><g transform="translate(142.203041, 134.618761)"><g><path d="M 1.4375 -0.421875 L -4.328125 -20.15625 L 4.296875 -22.671875 C 7.765625 -23.679688 10.679688 -23.609375 13.046875 -22.453125 C 15.421875 -21.304688 17.078125 -19.144531 18.015625 -15.96875 C 18.929688 -12.800781 18.703125 -10.085938 17.328125 -7.828125 C 15.953125 -5.578125 13.53125 -3.945312 10.0625 -2.9375 Z M 5.890625 -6.78125 L 8.703125 -7.609375 C 10.242188 -8.054688 11.300781 -8.847656 11.875 -9.984375 C 12.445312 -11.128906 12.492188 -12.539062 12.015625 -14.21875 C 11.523438 -15.882812 10.726562 -17.039062 9.625 -17.6875 C 8.53125 -18.34375 7.210938 -18.445312 5.671875 -18 L 2.859375 -17.171875 Z M 5.890625 -6.78125 "/></g></g></g><g fill="#ffbd59" fill-opacity="1"><g transform="translate(161.793345, 128.415674)"><g><path d="M 12.328125 0.921875 C 10.015625 0.890625 7.992188 0.40625 6.265625 -0.53125 C 4.535156 -1.476562 3.207031 -2.785156 2.28125 -4.453125 C 1.363281 -6.128906 0.921875 -8.066406 0.953125 -10.265625 C 0.992188 -12.484375 1.503906 -14.40625 2.484375 -16.03125 C 3.460938 -17.664062 4.832031 -18.921875 6.59375 -19.796875 C 8.351562 -20.679688 10.390625 -21.109375 12.703125 -21.078125 C 15.046875 -21.035156 17.070312 -20.539062 18.78125 -19.59375 C 20.5 -18.65625 21.820312 -17.351562 22.75 -15.6875 C 23.6875 -14.03125 24.132812 -12.09375 24.09375 -9.875 C 24.0625 -7.675781 23.550781 -5.753906 22.5625 -4.109375 C 21.570312 -2.472656 20.203125 -1.210938 18.453125 -0.328125 C 16.710938 0.546875 14.671875 0.960938 12.328125 0.921875 Z M 12.421875 -4.421875 C 14.035156 -4.390625 15.328125 -4.878906 16.296875 -5.890625 C 17.273438 -6.910156 17.78125 -8.273438 17.8125 -9.984375 C 17.84375 -11.703125 17.382812 -13.085938 16.4375 -14.140625 C 15.5 -15.191406 14.222656 -15.734375 12.609375 -15.765625 C 11.003906 -15.785156 9.710938 -15.285156 8.734375 -14.265625 C 7.765625 -13.242188 7.265625 -11.875 7.234375 -10.15625 C 7.203125 -8.445312 7.65625 -7.066406 8.59375 -6.015625 C 9.539062 -4.972656 10.816406 -4.441406 12.421875 -4.421875 Z M 12.421875 -4.421875 "/></g></g></g><g fill="#ffbd59" fill-opacity="1"><g transform="translate(184.486537, 128.830003)"><g><path d="M 9.5625 3.75 C 7.882812 3.226562 6.457031 2.523438 5.28125 1.640625 C 4.101562 0.753906 3.253906 -0.289062 2.734375 -1.5 C 2.222656 -2.71875 2.117188 -4.066406 2.421875 -5.546875 L 8.140625 -4.875 C 7.960938 -3.832031 8.148438 -2.910156 8.703125 -2.109375 C 9.265625 -1.316406 10.09375 -0.75 11.1875 -0.40625 C 12.164062 -0.101562 13 -0.0390625 13.6875 -0.21875 C 14.375 -0.40625 14.8125 -0.789062 15 -1.375 C 15.144531 -1.851562 15.039062 -2.304688 14.6875 -2.734375 C 14.332031 -3.171875 13.6875 -3.632812 12.75 -4.125 L 10.375 -5.328125 C 8.125 -6.492188 6.597656 -7.71875 5.796875 -9 C 5.003906 -10.289062 4.875 -11.773438 5.40625 -13.453125 C 5.820312 -14.796875 6.550781 -15.835938 7.59375 -16.578125 C 8.644531 -17.328125 9.890625 -17.765625 11.328125 -17.890625 C 12.765625 -18.015625 14.289062 -17.828125 15.90625 -17.328125 C 17.34375 -16.867188 18.578125 -16.21875 19.609375 -15.375 C 20.640625 -14.539062 21.398438 -13.582031 21.890625 -12.5 C 22.378906 -11.414062 22.519531 -10.265625 22.3125 -9.046875 L 16.6875 -9.546875 C 16.820312 -10.378906 16.675781 -11.117188 16.25 -11.765625 C 15.832031 -12.410156 15.222656 -12.863281 14.421875 -13.125 C 13.679688 -13.351562 13.03125 -13.367188 12.46875 -13.171875 C 11.90625 -12.984375 11.539062 -12.625 11.375 -12.09375 C 11.226562 -11.632812 11.320312 -11.203125 11.65625 -10.796875 C 12 -10.390625 12.601562 -9.972656 13.46875 -9.546875 L 15.890625 -8.3125 C 18.179688 -7.207031 19.734375 -6 20.546875 -4.6875 C 21.359375 -3.375 21.492188 -1.847656 20.953125 -0.109375 C 20.492188 1.347656 19.710938 2.453125 18.609375 3.203125 C 17.503906 3.960938 16.171875 4.382812 14.609375 4.46875 C 13.054688 4.5625 11.375 4.320312 9.5625 3.75 Z M 9.5625 3.75 "/></g></g></g><g transform="matrix(1, 0, 0, 1, 160, 72)"><g clip-path="url(#1544ba347d)"><g fill="#ffbd59" fill-opacity="1"><g transform="translate(17.375456, 73.233331)"><g/></g></g><g fill="#ffbd59" fill-opacity="1"><g transform="translate(20.809644, 70.751068)"><g/></g></g><g fill="#ffbd59" fill-opacity="1"><g transform="translate(24.386902, 68.479847)"><g/></g></g><g fill="#ffbd59" fill-opacity="1"><g transform="translate(28.09431, 66.427894)"><g/></g></g><g fill="#ffbd59" fill-opacity="1"><g transform="translate(31.918397, 64.602641)"><g/></g></g><g fill="#ffbd59" fill-opacity="1"><g transform="translate(35.845337, 63.010688)"><g/></g></g><g fill="#ffbd59" fill-opacity="1"><g transform="translate(39.860941, 61.657813)"><g/></g></g><g fill="#ffbd59" fill-opacity="1"><g transform="translate(43.950633, 60.548898)"><g/></g></g><g fill="#ffbd59" fill-opacity="1"><g transform="translate(48.099621, 59.687964)"><g/></g></g><g fill="#ffbd59" fill-opacity="1"><g transform="translate(52.292868, 59.078142)"><g/></g></g><g fill="#ffbd59" fill-opacity="1"><g transform="translate(56.515222, 58.721623)"><g/></g></g><g fill="#ffbd59" fill-opacity="1"><g transform="translate(60.122422, 57.857913)"><g><path d="M 1.40625 0.203125 L 4.40625 -20.046875 L 15.171875 -18.4375 C 16.878906 -18.1875 18.3125 -17.664062 19.46875 -16.875 C 20.625 -16.082031 21.460938 -15.09375 21.984375 -13.90625 C 22.515625 -12.71875 22.671875 -11.378906 22.453125 -9.890625 C 22.234375 -8.398438 21.691406 -7.160156 20.828125 -6.171875 C 19.972656 -5.179688 18.875 -4.476562 17.53125 -4.0625 C 16.1875 -3.644531 14.648438 -3.566406 12.921875 -3.828125 L 9.546875 -4.328125 L 8.6875 1.296875 Z M 10.296875 -9.390625 L 12.265625 -9.109375 C 13.085938 -8.984375 13.742188 -9.082031 14.234375 -9.40625 C 14.734375 -9.738281 15.035156 -10.257812 15.140625 -10.96875 C 15.242188 -11.675781 15.109375 -12.257812 14.734375 -12.71875 C 14.359375 -13.175781 13.757812 -13.46875 12.9375 -13.59375 L 10.9375 -13.875 Z M 10.296875 -9.390625 "/></g></g></g><g fill="#ffbd59" fill-opacity="1"><g transform="translate(79.474875, 60.780347)"><g><path d="M 1.3125 0.546875 L 9.171875 -18.359375 L 22.828125 -12.6875 L 20.640625 -7.421875 L 13.546875 -10.359375 L 12.78125 -8.53125 L 18.8125 -6.03125 L 16.953125 -1.5625 L 10.921875 -4.0625 L 10.0625 -1.96875 L 17.40625 1.078125 L 15.21875 6.328125 Z M 1.3125 0.546875 "/></g></g></g><g fill="#ffbd59" fill-opacity="1"><g transform="translate(93.848319, 66.646819)"><g><path d="M 1.171875 0.8125 L 12.828125 -16.015625 L 18.90625 -11.8125 L 10.8125 -0.125 L 16.171875 3.59375 L 12.609375 8.734375 Z M 1.171875 0.8125 "/></g></g></g><g fill="#ffbd59" fill-opacity="1"><g transform="translate(105.983581, 74.071329)"><g><path d="M 7.46875 9.875 C 5.945312 8.09375 4.960938 6.242188 4.515625 4.328125 C 4.066406 2.421875 4.15625 0.566406 4.78125 -1.234375 C 5.40625 -3.035156 6.5625 -4.65625 8.25 -6.09375 C 9.945312 -7.53125 11.726562 -8.40625 13.59375 -8.71875 C 15.46875 -9.039062 17.3125 -8.828125 19.125 -8.078125 C 20.945312 -7.328125 22.617188 -6.0625 24.140625 -4.28125 C 25.660156 -2.488281 26.640625 -0.632812 27.078125 1.28125 C 27.523438 3.195312 27.4375 5.050781 26.8125 6.84375 C 26.195312 8.632812 25.039062 10.25 23.34375 11.6875 C 21.65625 13.125 19.875 14.003906 18 14.328125 C 16.125 14.660156 14.28125 14.445312 12.46875 13.6875 C 10.65625 12.9375 8.988281 11.664062 7.46875 9.875 Z M 12.234375 5.828125 C 13.066406 6.816406 14.054688 7.332031 15.203125 7.375 C 16.359375 7.414062 17.476562 6.972656 18.5625 6.046875 C 19.644531 5.128906 20.257812 4.097656 20.40625 2.953125 C 20.550781 1.816406 20.207031 0.753906 19.375 -0.234375 C 18.539062 -1.210938 17.546875 -1.722656 16.390625 -1.765625 C 15.234375 -1.804688 14.113281 -1.367188 13.03125 -0.453125 C 11.945312 0.472656 11.332031 1.503906 11.1875 2.640625 C 11.050781 3.785156 11.398438 4.847656 12.234375 5.828125 Z M 12.234375 5.828125 "/></g></g></g><g fill="#ffbd59" fill-opacity="1"><g transform="translate(120.409619, 92.309949)"><g/></g></g><g fill="#ffbd59" fill-opacity="1"><g transform="translate(122.896669, 95.056743)"><g><path d="M 0.484375 1.34375 L 19.75 -5.578125 L 23.625 5.1875 C 24.476562 7.582031 24.671875 9.582031 24.203125 11.1875 C 23.742188 12.789062 22.660156 13.898438 20.953125 14.515625 C 19.878906 14.898438 18.878906 14.921875 17.953125 14.578125 C 17.023438 14.234375 16.226562 13.550781 15.5625 12.53125 L 15.5 12.546875 C 15.738281 13.828125 15.59375 14.925781 15.0625 15.84375 C 14.53125 16.769531 13.660156 17.445312 12.453125 17.875 C 10.734375 18.5 9.191406 18.351562 7.828125 17.4375 C 6.460938 16.519531 5.359375 14.898438 4.515625 12.578125 Z M 14.609375 4.109375 L 15.5625 6.78125 C 15.945312 7.851562 16.628906 8.210938 17.609375 7.859375 C 18.503906 7.546875 18.757812 6.851562 18.375 5.78125 L 17.421875 3.109375 Z M 7.796875 6.5625 L 8.859375 9.5 C 9.234375 10.5625 9.863281 10.9375 10.75 10.625 C 11.832031 10.226562 12.1875 9.5 11.8125 8.4375 L 10.75 5.5 Z M 7.796875 6.5625 "/></g></g></g><g fill="#ffbd59" fill-opacity="1"><g transform="translate(129.551704, 113.751378)"><g><path d="M 0.140625 1.421875 L 20.515625 -0.5625 L 21.9375 14.140625 L 16.28125 14.703125 L 15.546875 7.0625 L 13.5625 7.25 L 14.1875 13.75 L 9.375 14.21875 L 8.75 7.71875 L 6.484375 7.9375 L 7.25 15.859375 L 1.59375 16.40625 Z M 0.140625 1.421875 "/></g></g></g><g fill="#ffbd59" fill-opacity="1"><g transform="translate(132.328983, 128.761511)"><g><path d="M -0.296875 1.390625 L 19.71875 5.640625 L 17.796875 14.703125 L 4.953125 16.59375 L 4.9375 16.65625 L 15.90625 23.65625 L 14 32.609375 L -6.015625 28.359375 L -4.65625 21.96875 L 6.859375 24.40625 L 6.875 24.34375 L -3.71875 17.515625 L -2.59375 12.234375 L 9.859375 10.28125 L 9.859375 10.21875 L -1.65625 7.78125 Z M -0.296875 1.390625 "/></g></g></g><g fill="#ffbd59" fill-opacity="1"><g transform="translate(125.161845, 156.522105)"><g/></g></g></g></g></svg>